<?xml version="1.0" encoding="UTF-8" standalone="no"?>
<!-- Created with Inkscape (http://www.inkscape.org/) -->

<svg
   xmlns:dc="http://purl.org/dc/elements/1.1/"
   xmlns:cc="http://creativecommons.org/ns#"
   xmlns:rdf="http://www.w3.org/1999/02/22-rdf-syntax-ns#"
   xmlns:svg="http://www.w3.org/2000/svg"
   xmlns="http://www.w3.org/2000/svg"
   xmlns:sodipodi="http://sodipodi.sourceforge.net/DTD/sodipodi-0.dtd"
   xmlns:inkscape="http://www.inkscape.org/namespaces/inkscape"
   width="14.997727"
   height="14.282671"
   viewBox="0 0 14.997727 14.282671"
   version="1.1"
   id="SVGRoot"
   inkscape:version="0.92.4 (5da689c313, 2019-01-14)"
   sodipodi:docname="logo_white.svg">
  <defs
     id="defs3713">
    <filter
       style="color-interpolation-filters:sRGB;"
       inkscape:label="Invert"
       id="filter3792">
      <feColorMatrix
         values="1 0 0 0 0 0 1 0 0 0 0 0 1 0 0 -0.21 -0.72 -0.07 2 0 "
         result="color2"
         id="feColorMatrix3790" />
    </filter>
    <filter
       style="color-interpolation-filters:sRGB;"
       inkscape:label="Invert"
       id="filter3796">
      <feColorMatrix
         values="1 0 0 0 0 0 1 0 0 0 0 0 1 0 0 -0.21 -0.72 -0.07 2 0 "
         result="color2"
         id="feColorMatrix3794" />
    </filter>
    <filter
       style="color-interpolation-filters:sRGB;"
       inkscape:label="Invert"
       id="filter3800">
      <feColorMatrix
         values="1 0 0 0 0 0 1 0 0 0 0 0 1 0 0 -0.21 -0.72 -0.07 2 0 "
         result="color2"
         id="feColorMatrix3798" />
    </filter>
    <filter
       style="color-interpolation-filters:sRGB;"
       inkscape:label="Invert"
       id="filter3804">
      <feColorMatrix
         values="1 0 0 0 0 0 1 0 0 0 0 0 1 0 0 -0.21 -0.72 -0.07 2 0 "
         result="color2"
         id="feColorMatrix3802" />
    </filter>
    <filter
       style="color-interpolation-filters:sRGB;"
       inkscape:label="Invert"
       id="filter3808">
      <feColorMatrix
         values="1 0 0 0 0 0 1 0 0 0 0 0 1 0 0 -0.21 -0.72 -0.07 2 0 "
         result="color2"
         id="feColorMatrix3806" />
    </filter>
    <filter
       style="color-interpolation-filters:sRGB;"
       inkscape:label="Invert"
       id="filter3812">
      <feColorMatrix
         values="1 0 0 0 0 0 1 0 0 0 0 0 1 0 0 -0.21 -0.72 -0.07 2 0 "
         result="color2"
         id="feColorMatrix3810" />
    </filter>
    <filter
       style="color-interpolation-filters:sRGB;"
       inkscape:label="Invert"
       id="filter3816">
      <feColorMatrix
         values="1 0 0 0 0 0 1 0 0 0 0 0 1 0 0 -0.21 -0.72 -0.07 2 0 "
         result="color2"
         id="feColorMatrix3814" />
    </filter>
  </defs>
  <sodipodi:namedview
     id="base"
     pagecolor="#ffffff"
     bordercolor="#666666"
     borderopacity="1.0"
     inkscape:pageopacity="0.0"
     inkscape:pageshadow="2"
     inkscape:zoom="22.627417"
     inkscape:cx="-0.49787709"
     inkscape:cy="7.8427914"
     inkscape:document-units="px"
     inkscape:current-layer="layer1"
     showgrid="false"
     inkscape:window-width="1920"
     inkscape:window-height="1016"
     inkscape:window-x="0"
     inkscape:window-y="27"
     inkscape:window-maximized="1"
     inkscape:grid-bbox="true"
     fit-margin-top="0"
     fit-margin-left="0"
     fit-margin-right="0"
     fit-margin-bottom="0"
     inkscape:pagecheckerboard="true" />
  <metadata
     id="metadata3716">
    <rdf:RDF>
      <cc:Work
         rdf:about="">
        <dc:format>image/svg+xml</dc:format>
        <dc:type
           rdf:resource="http://purl.org/dc/dcmitype/StillImage" />
        <dc:title></dc:title>
      </cc:Work>
    </rdf:RDF>
  </metadata>
  <g
     inkscape:label="Layer 1"
     inkscape:groupmode="layer"
     id="layer1"
     transform="translate(-0.92323848,-1.4822136)">
    <path
       sodipodi:type="spiral"
       style="fill:none;fill-rule:evenodd;stroke:#000000;filter:url(#filter3816)"
       id="path3734"
       sodipodi:cx="9.0819025"
       sodipodi:cy="8.2660198"
       sodipodi:expansion="1"
       sodipodi:revolution="3"
       sodipodi:radius="7.9339619"
       sodipodi:argument="-21.310318"
       sodipodi:t0="0.046213292"
       d="M 9.0749857,7.8994306 C 9.3990446,7.5129336 9.9591764,7.8983477 10.109538,8.2466304 10.430632,8.9903833 9.823341,9.7635808 9.1137645,9.9547007 7.9992302,10.254893 6.9446539,9.3800259 6.7321758,8.3103544 6.4385679,6.8322543 7.5956102,5.4826266 9.0250954,5.2552472 10.864839,4.9626105 12.51436,6.4073837 12.753721,8.1967401 13.048103,10.397411 11.312949,12.349121 9.1636548,12.598884 6.6023858,12.896522 4.3472056,10.869525 4.0879924,8.3602447 3.786176,5.4385497 6.1059084,2.8791076 8.975205,2.6110639 c 3.282021,-0.3065995 6.14625,2.3064518 6.422699,5.5357859 0.3118,3.6422852 -2.594973,6.8116682 -6.1843588,7.0962172 -4.002508,0.3173 -7.477312,-2.883485 -7.7697361,-6.8329319 C 1.3088794,6.5877896 1.844553,4.7494425 2.916816,3.2720776" />
    <path
       style="fill:#ffffff;stroke:#000000;stroke-width:1.14728153px;stroke-linecap:butt;stroke-linejoin:miter;stroke-opacity:1;filter:url(#filter3812)"
       d="m 2.8878042,2.5744137 6.4040189,5.8569526 v 0 L 2.8878042,2.5744137"
       id="path3736"
       inkscape:connector-curvature="0" />
    <path
       style="fill:#000000;filter:url(#filter3808)"
       id="path3742"
       sodipodi:type="arc"
       sodipodi:cx="9.4133587"
       sodipodi:cy="2.5207767"
       sodipodi:rx="0.97227192"
       sodipodi:ry="1.0385631"
       sodipodi:start="0"
       sodipodi:end="6.2454674"
       sodipodi:open="true"
       d="M 10.385631,2.5207767 A 0.97227192,1.0385631 0 0 1 9.4225266,3.5592937 0.97227192,1.0385631 0 0 1 8.4412597,2.5403618 0.97227192,1.0385631 0 0 1 9.3858583,1.4826291 0.97227192,1.0385631 0 0 1 10.384939,2.4816136" />
    <ellipse
       style="fill:#000000;filter:url(#filter3804)"
       id="path3744"
       cx="9.5569897"
       cy="2.8743303"
       rx="0.055242717"
       ry="0.022097087" />
    <path
       style="fill:#000000;filter:url(#filter3800)"
       id="path3748"
       sodipodi:type="arc"
       sodipodi:cx="9.2476311"
       sodipodi:cy="2.6975536"
       sodipodi:rx="0.011048543"
       sodipodi:ry="0.28726214"
       sodipodi:start="0"
       sodipodi:end="6.2454687"
       sodipodi:open="true"
       d="M 9.2586796,2.6975536 A 0.01104854,0.28726214 0 0 1 9.2477352,2.984803 0.01104854,0.28726214 0 0 1 9.2365845,2.7029706 0.01104854,0.28726214 0 0 1 9.2473186,2.4104064 0.01104854,0.28726214 0 0 1 9.2586718,2.6867216" />
    <path
       style="fill:#000000;filter:url(#filter3796)"
       id="path3742-3"
       sodipodi:type="arc"
       sodipodi:cx="11.225321"
       sodipodi:cy="11.735262"
       sodipodi:rx="0.97227192"
       sodipodi:ry="1.0385631"
       sodipodi:start="0"
       sodipodi:end="6.2454674"
       sodipodi:open="true"
       d="m 12.197593,11.735262 a 0.97227192,1.0385631 0 0 1 -0.963104,1.038517 0.97227192,1.0385631 0 0 1 -0.981267,-1.018932 0.97227192,1.0385631 0 0 1 0.944598,-1.057733 0.97227192,1.0385631 0 0 1 0.999081,0.998985" />
    <path
       style="fill:#000000;filter:url(#filter3792)"
       id="path3742-6"
       sodipodi:type="arc"
       sodipodi:cx="2.8947184"
       sodipodi:cy="12.464466"
       sodipodi:rx="0.97227192"
       sodipodi:ry="1.0385631"
       sodipodi:start="0"
       sodipodi:end="6.2454674"
       sodipodi:open="true"
       d="M 3.8669903,12.464466 A 0.97227192,1.0385631 0 0 1 2.9038863,13.502983 0.97227192,1.0385631 0 0 1 1.9226194,12.484051 0.97227192,1.0385631 0 0 1 2.867218,11.426318 0.97227192,1.0385631 0 0 1 3.8662988,12.425303" />
    <path
       style="fill:#ffffff;stroke-width:0.04419417"
       d="M 6.8604529,14.231802 C 5.3511409,14.035961 3.8893868,13.368533 2.7093593,12.336437 L 2.3147706,11.991315 1.9769807,11.988783 C 1.6921838,11.986646 1.6135766,11.968915 1.4759202,11.875763 1.077058,11.605852 0.89187646,11.038154 1.0664249,10.620401 1.1264505,10.476739 1.1207226,10.457887 0.85536641,9.9257618 -0.11440233,7.9810599 -0.25951444,5.8618114 0.43359569,3.7661321 0.63373838,3.1609831 1.033103,2.3239245 1.3447155,1.8564471 1.5586416,1.5355176 2.276737,0.70414878 2.3453565,0.69796345 2.3656534,0.69613381 2.80842,1.0844663 3.3292821,1.5609243 L 4.2763042,2.4272117 4.5580517,2.1636506 C 4.9107946,1.8336772 5.5414844,1.4094095 6.0132656,1.1847228 6.3684365,1.0155718 7.1023028,0.77036831 7.4203241,0.7145885 7.5424556,0.6931671 7.5950462,0.65573764 7.6335199,0.56285399 7.6952658,0.41378598 7.918,0.17933755 8.0731061,0.10014902 c 0.360399,-0.18399986 0.7549368,-0.11258709 1.0585817,0.19160727 0.1120013,0.11220382 0.2235262,0.23978869 0.247833,0.28352192 0.029847,0.0537013 0.1517981,0.10131395 0.3756504,0.14666305 1.9900418,0.40315204 3.6951138,1.75575794 4.5911098,3.64205184 0.891442,1.8767073 0.861401,3.9980524 -0.08334,5.8852099 -1.055016,2.107429 -3.091236,3.586234 -5.4358444,3.947783 -0.3844138,0.05928 -1.6107924,0.08099 -1.9666407,0.03482 z m 2.016474,-1.055966 C 10.092565,12.945377 11.27784,12.324222 12.161189,11.454685 14.486059,9.166166 14.609581,5.6447124 12.44624,3.3282279 11.700722,2.5299346 10.603343,1.9092233 9.5824339,1.7083718 L 9.31541,1.655838 9.1518059,1.7994844 c -0.2126889,0.1867431 -0.4067614,0.265172 -0.6561686,0.265172 -0.2468258,0 -0.4868629,-0.095516 -0.6629126,-0.2637865 L 7.7001422,1.6741456 7.2818744,1.7807432 C 6.5684226,1.9625698 5.5772675,2.5188789 5.1470761,2.9789489 L 5.0246896,3.1098357 5.4343382,3.4849581 C 5.659645,3.6912755 5.9293559,3.936487 6.0336957,4.0298727 L 6.223404,4.1996648 6.365152,4.066645 c 0.9263381,-0.8693006 2.488973,-1.0679413 3.73965,-0.4753811 1.766947,0.8371643 2.659338,2.9169704 2.073429,4.8323313 -0.128518,0.420131 -0.408435,0.9654111 -0.682831,1.3301611 -0.215498,0.2864587 -0.237717,0.3372097 -0.238597,0.5449787 -0.0012,0.293072 -0.114735,0.540053 -0.342548,0.745446 -0.274464,0.247454 -0.578196,0.310528 -0.9160158,0.190225 C 9.8324841,11.175378 9.8035524,11.178632 9.5342004,11.2866 8.516729,11.694445 7.4432551,11.751638 6.4124494,11.452922 4.7967847,10.984721 3.4603804,9.6834518 2.9082251,8.0408268 2.4317525,6.6233526 2.6137425,4.9249161 3.3831522,3.6085312 L 3.5527606,3.3183478 2.9340247,2.7545456 2.3152887,2.1907435 2.1634647,2.4260106 C 1.9235697,2.7977527 1.506605,3.6837696 1.3613243,4.1304953 1.102818,4.9253802 1.0277802,5.4385408 1.0300933,6.3956854 c 0.00173,0.7147705 0.018575,0.9382932 0.098759,1.3102583 0.1265433,0.587025 0.3602624,1.2514504 0.6276194,1.7842217 0.2093961,0.4172704 0.220807,0.4306316 0.4080293,0.4777749 0.4394772,0.1106617 0.7379917,0.4867747 0.7757031,0.9773467 0.021872,0.284531 0.093149,0.376386 0.6277832,0.80903 1.023168,0.827981 2.2369995,1.3473 3.4856307,1.491274 0.4504779,0.05194 1.3661582,0.01691 1.8233093,-0.06975 z M 8.4643549,10.568361 C 8.6517077,10.52988 8.913898,10.455303 9.0470003,10.402633 9.2884348,10.307095 9.2891751,10.306214 9.3618656,10.027955 9.501133,9.4948421 9.8618648,9.2089327 10.365238,9.2327004 l 0.27861,0.013155 0.195358,-0.3036285 C 11.217054,8.3549687 11.363519,7.7992765 11.335677,7.058598 11.320647,6.6587291 11.292126,6.4812511 11.201913,6.2262184 10.729934,4.8919239 9.4371579,4.0596497 8.168862,4.2735755 7.8148375,4.3332894 7.2329885,4.5977436 7.0670845,4.77434 L 6.9671035,4.8807653 7.5023803,5.3766266 C 7.9100123,5.7542415 8.0553775,5.8643141 8.1119677,5.838213 8.1528387,5.819363 8.3117683,5.796121 8.4651446,5.786565 9.4364318,5.72605 10.072957,6.9230072 9.5904661,7.902682 9.3093046,8.473566 8.6995947,8.9089922 8.0536955,9.0001705 7.0421444,9.1429659 6.0533541,8.5795175 5.5569479,7.5774345 5.1896059,6.8358912 5.1727348,6.1756696 5.496127,5.1973529 5.512656,5.1473529 5.3367049,4.9571041 4.908687,4.5621779 L 4.2976511,3.9983836 4.0903837,4.4319761 C 3.7631446,5.116543 3.6782389,5.5224793 3.6796541,6.3956854 3.6810193,7.2380136 3.7468413,7.5459957 4.0716297,8.2297436 4.8859084,9.943972 6.728436,10.924905 8.4643549,10.568361 Z M 8.0670868,7.9786933 C 8.3555771,7.9060509 8.7154786,7.5478377 8.759043,7.2899837 8.7922796,7.0932573 8.7275908,6.9021082 8.601253,6.8237299 8.5442756,6.788382 8.4738058,6.8380342 8.2476996,7.0728392 L 7.9653072,7.3660953 7.1478043,6.6137682 6.3303013,5.8614415 6.2936573,6.0291266 c -0.05548,0.2538769 -0.00797,0.7107961 0.1047353,1.0073743 0.073663,0.1938322 0.1731453,0.3375556 0.3698045,0.5342608 0.4068171,0.4069125 0.8055802,0.5321486 1.2988897,0.4079316 z"
       id="path4255"
       inkscape:connector-curvature="0"
       transform="translate(0.92323848,1.4822136)" />
  </g>
</svg>
