<?xml version="1.0" encoding="UTF-8" standalone="no"?>
<!-- Created with Inkscape (http://www.inkscape.org/) -->

<svg
   xmlns:dc="http://purl.org/dc/elements/1.1/"
   xmlns:cc="http://creativecommons.org/ns#"
   xmlns:rdf="http://www.w3.org/1999/02/22-rdf-syntax-ns#"
   xmlns:svg="http://www.w3.org/2000/svg"
   xmlns="http://www.w3.org/2000/svg"
   xmlns:sodipodi="http://sodipodi.sourceforge.net/DTD/sodipodi-0.dtd"
   xmlns:inkscape="http://www.inkscape.org/namespaces/inkscape"
   width="14.997727"
   height="14.282671"
   viewBox="0 0 14.997727 14.282671"
   version="1.1"
   id="SVGRoot"
   inkscape:version="0.92.4 (5da689c313, 2019-01-14)"
   sodipodi:docname="logo.svg">
  <defs
     id="defs3713" />
  <sodipodi:namedview
     id="base"
     pagecolor="#ffffff"
     bordercolor="#666666"
     borderopacity="1.0"
     inkscape:pageopacity="0.0"
     inkscape:pageshadow="2"
     inkscape:zoom="22.627417"
     inkscape:cx="-0.49787709"
     inkscape:cy="7.8427914"
     inkscape:document-units="px"
     inkscape:current-layer="layer1"
     showgrid="false"
     inkscape:window-width="1920"
     inkscape:window-height="1016"
     inkscape:window-x="0"
     inkscape:window-y="27"
     inkscape:window-maximized="1"
     inkscape:grid-bbox="true"
     fit-margin-top="0"
     fit-margin-left="0"
     fit-margin-right="0"
     fit-margin-bottom="0" />
  <metadata
     id="metadata3716">
    <rdf:RDF>
      <cc:Work
         rdf:about="">
        <dc:format>image/svg+xml</dc:format>
        <dc:type
           rdf:resource="http://purl.org/dc/dcmitype/StillImage" />
        <dc:title></dc:title>
      </cc:Work>
    </rdf:RDF>
  </metadata>
  <g
     inkscape:label="Layer 1"
     inkscape:groupmode="layer"
     id="layer1"
     transform="translate(-0.92323848,-1.4822136)">
    <path
       sodipodi:type="spiral"
       style="fill:none;fill-rule:evenodd;stroke:#000000"
       id="path3734"
       sodipodi:cx="9.0819025"
       sodipodi:cy="8.2660198"
       sodipodi:expansion="1"
       sodipodi:revolution="3"
       sodipodi:radius="7.9339619"
       sodipodi:argument="-21.310318"
       sodipodi:t0="0.046213292"
       d="M 9.0749857,7.8994306 C 9.3990446,7.5129336 9.9591764,7.8983477 10.109538,8.2466304 10.430632,8.9903833 9.823341,9.7635808 9.1137645,9.9547007 7.9992302,10.254893 6.9446539,9.3800259 6.7321758,8.3103544 6.4385679,6.8322543 7.5956102,5.4826266 9.0250954,5.2552472 10.864839,4.9626105 12.51436,6.4073837 12.753721,8.1967401 13.048103,10.397411 11.312949,12.349121 9.1636548,12.598884 6.6023858,12.896522 4.3472056,10.869525 4.0879924,8.3602447 3.786176,5.4385497 6.1059084,2.8791076 8.975205,2.6110639 c 3.282021,-0.3065995 6.14625,2.3064518 6.422699,5.5357859 0.3118,3.6422852 -2.594973,6.8116682 -6.1843588,7.0962172 -4.002508,0.3173 -7.477312,-2.883485 -7.7697361,-6.8329319 C 1.3088794,6.5877896 1.844553,4.7494425 2.916816,3.2720776" />
    <path
       style="fill:none;stroke:#000000;stroke-width:1.14728153px;stroke-linecap:butt;stroke-linejoin:miter;stroke-opacity:1"
       d="m 2.8878042,2.5744137 6.4040189,5.8569526 v 0 L 2.8878042,2.5744137"
       id="path3736"
       inkscape:connector-curvature="0" />
    <path
       style="fill:#000000"
       id="path3742"
       sodipodi:type="arc"
       sodipodi:cx="9.4133587"
       sodipodi:cy="2.5207767"
       sodipodi:rx="0.97227192"
       sodipodi:ry="1.0385631"
       sodipodi:start="0"
       sodipodi:end="6.2454674"
       sodipodi:open="true"
       d="M 10.385631,2.5207767 A 0.97227192,1.0385631 0 0 1 9.4225266,3.5592937 0.97227192,1.0385631 0 0 1 8.4412597,2.5403618 0.97227192,1.0385631 0 0 1 9.3858583,1.4826291 0.97227192,1.0385631 0 0 1 10.384939,2.4816136" />
    <ellipse
       style="fill:#000000"
       id="path3744"
       cx="9.5569897"
       cy="2.8743303"
       rx="0.055242717"
       ry="0.022097087" />
    <path
       style="fill:#000000"
       id="path3748"
       sodipodi:type="arc"
       sodipodi:cx="9.2476311"
       sodipodi:cy="2.6975536"
       sodipodi:rx="0.011048543"
       sodipodi:ry="0.28726214"
       sodipodi:start="0"
       sodipodi:end="6.2454687"
       sodipodi:open="true"
       d="M 9.2586796,2.6975536 A 0.01104854,0.28726214 0 0 1 9.2477352,2.984803 0.01104854,0.28726214 0 0 1 9.2365845,2.7029706 0.01104854,0.28726214 0 0 1 9.2473186,2.4104064 0.01104854,0.28726214 0 0 1 9.2586718,2.6867216" />
    <path
       style="fill:#000000"
       id="path3742-3"
       sodipodi:type="arc"
       sodipodi:cx="11.225321"
       sodipodi:cy="11.735262"
       sodipodi:rx="0.97227192"
       sodipodi:ry="1.0385631"
       sodipodi:start="0"
       sodipodi:end="6.2454674"
       sodipodi:open="true"
       d="m 12.197593,11.735262 a 0.97227192,1.0385631 0 0 1 -0.963104,1.038517 0.97227192,1.0385631 0 0 1 -0.981267,-1.018932 0.97227192,1.0385631 0 0 1 0.944598,-1.057733 0.97227192,1.0385631 0 0 1 0.999081,0.998985" />
    <path
       style="fill:#000000"
       id="path3742-6"
       sodipodi:type="arc"
       sodipodi:cx="2.8947184"
       sodipodi:cy="12.464466"
       sodipodi:rx="0.97227192"
       sodipodi:ry="1.0385631"
       sodipodi:start="0"
       sodipodi:end="6.2454674"
       sodipodi:open="true"
       d="M 3.8669903,12.464466 A 0.97227192,1.0385631 0 0 1 2.9038863,13.502983 0.97227192,1.0385631 0 0 1 1.9226194,12.484051 0.97227192,1.0385631 0 0 1 2.867218,11.426318 0.97227192,1.0385631 0 0 1 3.8662988,12.425303" />
  </g>
</svg>
