<?xml version="1.0" encoding="UTF-8" standalone="no"?>
<!-- Created with Inkscape (http://www.inkscape.org/) -->

<svg
   xmlns:dc="http://purl.org/dc/elements/1.1/"
   xmlns:cc="http://creativecommons.org/ns#"
   xmlns:rdf="http://www.w3.org/1999/02/22-rdf-syntax-ns#"
   xmlns:svg="http://www.w3.org/2000/svg"
   xmlns="http://www.w3.org/2000/svg"
   xmlns:sodipodi="http://sodipodi.sourceforge.net/DTD/sodipodi-0.dtd"
   xmlns:inkscape="http://www.inkscape.org/namespaces/inkscape"
   width="512"
   height="512"
   viewBox="0 0 511.99999 512"
   version="1.1"
   id="SVGRoot"
   inkscape:version="0.92.4 (5da689c313, 2019-01-14)"
   sodipodi:docname="logo_white_blue.svg"
   inkscape:export-filename="/home/d/geogeist-droid/marketing/logo_white.svg.png"
   inkscape:export-xdpi="96"
   inkscape:export-ydpi="96">
  <defs
     id="defs3713">
    <filter
       style="color-interpolation-filters:sRGB"
       inkscape:label="Invert"
       id="filter3792">
      <feColorMatrix
         values="1 0 0 0 0 0 1 0 0 0 0 0 1 0 0 -0.21 -0.72 -0.07 2 0 "
         result="color2"
         id="feColorMatrix3790" />
    </filter>
    <filter
       style="color-interpolation-filters:sRGB"
       inkscape:label="Invert"
       id="filter3796">
      <feColorMatrix
         values="1 0 0 0 0 0 1 0 0 0 0 0 1 0 0 -0.21 -0.72 -0.07 2 0 "
         result="color2"
         id="feColorMatrix3794" />
    </filter>
    <filter
       style="color-interpolation-filters:sRGB"
       inkscape:label="Invert"
       id="filter3800">
      <feColorMatrix
         values="1 0 0 0 0 0 1 0 0 0 0 0 1 0 0 -0.21 -0.72 -0.07 2 0 "
         result="color2"
         id="feColorMatrix3798" />
    </filter>
    <filter
       style="color-interpolation-filters:sRGB"
       inkscape:label="Invert"
       id="filter3804">
      <feColorMatrix
         values="1 0 0 0 0 0 1 0 0 0 0 0 1 0 0 -0.21 -0.72 -0.07 2 0 "
         result="color2"
         id="feColorMatrix3802" />
    </filter>
    <filter
       style="color-interpolation-filters:sRGB"
       inkscape:label="Invert"
       id="filter3808">
      <feColorMatrix
         values="1 0 0 0 0 0 1 0 0 0 0 0 1 0 0 -0.21 -0.72 -0.07 2 0 "
         result="color2"
         id="feColorMatrix3806" />
    </filter>
    <filter
       style="color-interpolation-filters:sRGB"
       inkscape:label="Invert"
       id="filter3812">
      <feColorMatrix
         values="1 0 0 0 0 0 1 0 0 0 0 0 1 0 0 -0.21 -0.72 -0.07 2 0 "
         result="color2"
         id="feColorMatrix3810" />
    </filter>
    <filter
       style="color-interpolation-filters:sRGB"
       inkscape:label="Invert"
       id="filter3816">
      <feColorMatrix
         values="1 0 0 0 0 0 1 0 0 0 0 0 1 0 0 -0.21 -0.72 -0.07 2 0 "
         result="color2"
         id="feColorMatrix3814" />
    </filter>
  </defs>
  <sodipodi:namedview
     id="base"
     pagecolor="#ffffff"
     bordercolor="#666666"
     borderopacity="1.0"
     inkscape:pageopacity="0.0"
     inkscape:pageshadow="2"
     inkscape:zoom="1.6113281"
     inkscape:cx="171.92318"
     inkscape:cy="-52.596082"
     inkscape:document-units="px"
     inkscape:current-layer="layer3"
     showgrid="false"
     inkscape:window-width="1920"
     inkscape:window-height="1016"
     inkscape:window-x="0"
     inkscape:window-y="27"
     inkscape:window-maximized="1"
     inkscape:grid-bbox="true"
     fit-margin-top="0"
     fit-margin-left="0"
     fit-margin-right="0"
     fit-margin-bottom="0"
     inkscape:pagecheckerboard="true" />
  <metadata
     id="metadata3716">
    <rdf:RDF>
      <cc:Work
         rdf:about="">
        <dc:format>image/svg+xml</dc:format>
        <dc:type
           rdf:resource="http://purl.org/dc/dcmitype/StillImage" />
        <dc:title></dc:title>
      </cc:Work>
    </rdf:RDF>
  </metadata>
  <g
     inkscape:groupmode="layer"
     id="layer3"
     inkscape:label="Layer 2">
    <rect
       style="fill:#0000ff;fill-rule:evenodd"
       id="rect74"
       width="659.70422"
       height="567.23395"
       x="-68.26667"
       y="-36.615757"
       inkscape:export-xdpi="96"
       inkscape:export-ydpi="96" />
  </g>
  <g
     inkscape:label="Layer 1"
     inkscape:groupmode="layer"
     id="layer1"
     transform="translate(-0.92323848,496.23512)">
    <path
       sodipodi:type="spiral"
       style="fill:none;fill-rule:evenodd;stroke:#000000;filter:url(#filter3816)"
       id="path3734"
       sodipodi:cx="9.0819025"
       sodipodi:cy="8.2660198"
       sodipodi:expansion="1"
       sodipodi:revolution="3"
       sodipodi:radius="7.9339619"
       sodipodi:argument="-21.310318"
       sodipodi:t0="0.046213292"
       d="M 9.0749857,7.8994306 C 9.3990446,7.5129336 9.9591764,7.8983477 10.109538,8.2466304 10.430632,8.9903833 9.823341,9.7635808 9.1137645,9.9547007 7.9992302,10.254893 6.9446539,9.3800259 6.7321758,8.3103544 6.4385679,6.8322543 7.5956102,5.4826266 9.0250954,5.2552472 10.864839,4.9626105 12.51436,6.4073837 12.753721,8.1967401 13.048103,10.397411 11.312949,12.349121 9.1636548,12.598884 6.6023858,12.896522 4.3472056,10.869525 4.0879924,8.3602447 3.786176,5.4385497 6.1059084,2.8791076 8.975205,2.6110639 c 3.282021,-0.3065995 6.14625,2.3064518 6.422699,5.5357859 0.3118,3.6422852 -2.594973,6.8116682 -6.1843588,7.0962172 -4.002508,0.3173 -7.477312,-2.883485 -7.7697361,-6.8329319 C 1.3088794,6.5877896 1.844553,4.7494425 2.916816,3.2720776"
       transform="matrix(25.208043,0,0,25.837321,51.186961,-451.93489)" />
    <path
       style="fill:#ffffff;stroke:#000000;stroke-width:1.14728153px;stroke-linecap:butt;stroke-linejoin:miter;stroke-opacity:1;filter:url(#filter3812)"
       d="m 1.9648438,498.80859 6.4042968,5.85743 z"
       transform="matrix(25.208043,0,0,25.837321,74.459996,-13273.321)"
       id="path3736"
       inkscape:connector-curvature="0" />
    <path
       style="fill:#ffffff;stroke-width:1.12786806"
       d="m 247.39858,-45.926823 c -38.0468,-5.060006 -74.89476,-22.304558 -104.64094,-48.971152 l -9.94681,-8.917035 -8.51502,-0.0654 c -7.17917,-0.0552 -9.16071,-0.51333 -12.63075,-2.92013 -10.05454,-6.97377 -14.722604,-21.64157 -10.32258,-32.43519 1.51313,-3.71184 1.36874,-4.19892 -5.320371,-17.94762 -24.445971,-50.24588 -28.103964,-105.00159 -10.632014,-159.14832 5.045206,-15.63543 15.112405,-37.26279 22.967545,-49.34115 5.39266,-8.29196 23.49444,-29.7723 25.2242,-29.93211 0.51165,-0.0473 11.67292,9.9862 24.80284,22.29659 l 23.87257,22.38255 7.10231,-6.80971 c 8.89195,-8.52563 24.79041,-19.48757 36.68309,-25.29288 8.95316,-4.3704 27.45249,-10.70581 35.46919,-12.147 3.07869,-0.55348 4.4044,-1.52055 5.37424,-3.92042 1.5565,-3.85152 7.17119,-9.90903 11.08111,-11.95505 9.08496,-4.75407 19.03048,-2.90895 26.68478,4.95061 2.82333,2.89905 5.63466,6.1955 6.24738,7.32545 0.75239,1.3875 3.82654,2.61768 9.46941,3.78938 50.16506,10.41637 93.14659,45.36408 115.7329,94.10086 22.47151,48.48909 21.71422,103.29896 -2.10084,152.05806 -26.59489,54.450325 -77.92401,92.658684 -137.027,102.000142 -9.69032,1.531636 -40.60493,2.092564 -49.57517,0.899655 z m 50.83136,-27.283332 c 30.64386,-5.954443 60.52233,-22.00342 82.78983,-44.469945 58.60542,-59.12919 61.71916,-150.11412 7.18557,-209.96587 -18.79305,-20.62576 -46.45583,-36.66328 -72.19094,-41.85275 l -6.73116,-1.35733 -4.12414,3.71144 c -5.36146,4.82495 -10.25366,6.85134 -16.54072,6.85134 -6.22199,0 -12.27286,-2.46788 -16.71073,-6.81554 l -3.34214,-3.27421 -10.54372,2.75419 c -17.98472,4.69792 -42.9698,19.07145 -53.81408,30.95842 l -3.08513,3.38178 10.32644,9.69215 c 5.67955,5.33069 12.47843,11.66629 15.10863,14.07914 l 4.78218,4.38696 3.57319,-3.43687 c 23.35116,-22.4604 62.74213,-27.59274 94.26925,-12.28258 44.54128,21.63009 67.03671,75.3667 52.26709,124.8545 -3.23969,10.85506 -10.29585,24.94363 -17.21283,34.3678 -5.43229,7.40132 -5.99238,8.71259 -6.01457,14.08079 -0.0303,7.5722 -2.89224,13.95352 -8.63497,19.26033 -6.91869,6.39354 -14.57519,8.02321 -23.09096,4.9149 -4.17836,-1.52513 -4.90767,-1.44105 -11.69751,1.34855 -25.64846,10.53763 -52.70864,12.01534 -78.69323,4.29732 -40.72774,-12.09706 -74.41588,-45.71837 -88.33463,-88.1594 -12.01095,-36.62374 -7.42334,-80.50678 11.97198,-114.51864 l 4.27549,-7.49756 -15.59711,-14.56714 -15.59713,-14.56714 -3.82718,6.07867 c -6.04729,9.60482 -16.55815,32.49713 -20.22039,44.03932 -6.51644,20.5377 -8.408,33.79639 -8.34969,58.52644 0.0436,18.46776 0.46824,24.24299 2.48952,33.85357 3.18991,15.16715 9.08151,32.33412 15.82106,46.09951 5.27846,10.78115 5.56611,11.12637 10.28562,12.34442 11.07835,2.8592 18.60332,12.57695 19.55395,25.25202 0.55135,7.35152 2.34811,9.7248 15.82519,20.90317 25.79206,21.392813 56.39038,34.810625 87.86593,38.530527 11.35566,1.341991 34.43817,0.43691 45.96205,-1.802153 z m -10.40013,-67.370175 c 4.7228,-0.99424 11.3321,-2.92111 14.68735,-4.28196 6.08609,-2.46845 6.10475,-2.49121 7.93714,-9.68068 3.51066,-13.77421 12.604,-21.16134 25.29305,-20.54725 l 7.02322,0.33989 4.92459,-7.84495 c 9.52481,-15.17317 13.2169,-29.53077 12.51506,-48.66792 -0.37887,-10.33154 -1.09784,-14.9171 -3.37192,-21.50646 -11.89768,-34.47459 -44.48603,-55.97833 -76.45729,-50.45106 -8.92426,1.54284 -23.59154,8.37563 -27.77365,12.93841 l -2.52033,2.74975 13.49329,12.81173 c 10.2756,9.75655 13.93997,12.60053 15.3665,11.92615 1.03028,-0.48703 5.03658,-1.08754 8.9029,-1.33444 24.48425,-1.56355 40.5298,29.36262 28.36715,54.67479 -7.08753,14.75012 -22.45713,26.00036 -38.73898,28.35616 -25.49923,3.68945 -50.42469,-10.86854 -62.93812,-36.75968 -9.25997,-19.1595 -9.68526,-36.21786 -1.53317,-61.49494 0.41666,-1.29186 -4.01873,-6.20739 -14.80822,-16.41122 l -15.40302,-14.56693 -5.2248,11.20287 c -8.24906,17.68737 -10.38937,28.17568 -10.35369,50.73698 0.0344,21.7635 1.69366,29.72094 9.88094,47.38715 20.52637,44.29108 66.97288,69.63575 110.732,60.42361 z m -10.01435,-66.91007 c 7.27227,-1.87688 16.34469,-11.13215 17.44286,-17.79442 0.83783,-5.08288 -0.79284,-10.02165 -3.97757,-12.04675 -1.43629,-0.91329 -3.2127,0.36959 -8.9124,6.43633 l -7.11855,7.57695 -20.60765,-19.43812 -20.60765,-19.43811 -0.92372,4.33254 c -1.39855,6.5595 -0.20091,18.36506 2.64016,26.02785 1.8569,5.00811 4.36466,8.72153 9.32205,13.80387 10.25506,10.51353 20.3071,13.74929 32.74247,10.53986 z"
       id="path4255"
       inkscape:connector-curvature="0" />
  </g>
</svg>
